<?xml version="1.0" standalone="no"?>
<!DOCTYPE svg PUBLIC "-//W3C//DTD SVG 20010904//EN"
 "http://www.w3.org/TR/2001/REC-SVG-20010904/DTD/svg10.dtd">
<svg version="1.0" xmlns="http://www.w3.org/2000/svg"
 width="700.000000pt" height="700.000000pt" viewBox="0 0 700.000000 700.000000"
 preserveAspectRatio="xMidYMid meet">
<metadata>
Created by potrace 1.14, written by Peter Selinger 2001-2017
</metadata>
<g transform="translate(0.000000,700.000000) scale(0.100000,-0.100000)"
fill="#000000" stroke="none">
<path d="M263 6986 c-102 -33 -185 -105 -232 -205 l-26 -56 0 -3180 0 -3180
26 -55 c36 -78 103 -144 185 -182 l69 -33 3165 -1 c3394 -1 3203 -3 3301 46
46 24 116 94 141 143 47 93 45 -62 43 3277 -1 2953 -2 3158 -18 3199 -34 89
-109 169 -197 210 l-55 26 -3180 2 c-2612 1 -3188 -1 -3222 -11z"/>
</g>
</svg>
