<svg width="53" height="53" viewBox="0 0 53 53" fill="none" xmlns="http://www.w3.org/2000/svg">
<rect x="1" y="1" width="50" height="50" rx="5" fill="#302E2F"/>
<path d="M44.58 16.05L26.25 26.11L7.92 16.05V14.09L26.25 4.15L44.58 14.09V16.05ZM44.58 24.02L30.35 31.81V41.47L42.87 34.61V32.32L32.06 38.24V33.09L44.58 26.26V40.13L27.03 49.74V27.25L44.58 17.64V24.02ZM25.47 49.74L7.92 40.13V33.67L22.15 41.47V39.18L7.92 31.38V17.64L25.47 27.25V33.62L11.24 25.83V28.12L25.47 35.88L25.58 49.74H25.47ZM49.76 0H2.76C1.23 0 0 1.23 0 2.75V49.54C0 51.06 1.24 52.29 2.76 52.29H49.76C51.28 52.29 52.52 51.06 52.52 49.54V2.75C52.52 1.23 51.28 0 49.76 0Z" fill="white"/>
<path d="M44.58 16.05L26.25 26.11L7.92 16.05V14.09L26.25 4.15L44.58 14.09V16.05ZM44.58 24.02L30.35 31.81V41.47L42.87 34.61V32.32L32.06 38.24V33.09L44.58 26.26V40.13L27.03 49.74V27.25L44.58 17.64V24.02ZM25.47 49.74L7.92 40.13V33.67L22.15 41.47V39.18L7.92 31.38V17.64L25.47 27.25V33.62L11.24 25.83V28.12L25.47 35.88L25.58 49.74H25.47ZM49.76 0H2.76C1.23 0 0 1.23 0 2.75V49.54C0 51.06 1.24 52.29 2.76 52.29H49.76C51.28 52.29 52.52 51.06 52.52 49.54V2.75C52.52 1.23 51.28 0 49.76 0Z" fill="black" fill-opacity="0.2"/>
</svg>
